<svg xmlns="http://www.w3.org/2000/svg" viewBox="0 0 100 100">
  <rect width="100" height="100" rx="22" fill="#090c0c"/>
  <g transform="translate(50,50) scale(0.82) translate(-50,-50)">
    <path d="M50 50 L50 12 A38 38 0 0 1 88 50 Z" fill="#5eead4" fill-opacity="0.22"/>
    <path d="M50 50 L50 88 A38 38 0 0 1 12 50 Z" fill="#5eead4" fill-opacity="0.22"/>
    <circle cx="50" cy="50" r="38" fill="none" stroke="#5eead4" stroke-width="4"/>
    <path d="M50 4 V96 M4 50 H96" stroke="#5eead4" stroke-width="3" stroke-linecap="round"/>
    <path d="M44 6 H56 M44 94 H56 M6 44 V56 M94 44 V56" stroke="#5eead4" stroke-width="3.5" stroke-linecap="round"/>
    <path d="M63 34 C63 26, 52 22, 44 24 C34 26.5, 32 38, 42 42 L58 48 C68 52, 66 64, 56 66.5 C48 68.5, 37 64, 37 56" fill="none" stroke="#eef4f2" stroke-width="9" stroke-linecap="round" stroke-linejoin="round"/>
  </g>
</svg>