<svg xmlns="http://www.w3.org/2000/svg" viewBox="0 0 100 100" fill="none">
  <!-- opposite quadrants filled (GD&T datum target) -->
  <path d="M50 50 L50 12 A38 38 0 0 1 88 50 Z" fill="#5eead4" fill-opacity="0.22"/>
  <path d="M50 50 L50 88 A38 38 0 0 1 12 50 Z" fill="#5eead4" fill-opacity="0.22"/>
  <circle cx="50" cy="50" r="38" stroke="#5eead4" stroke-width="4"/>
  <!-- crosshair -->
  <path d="M50 4 V96 M4 50 H96" stroke="#5eead4" stroke-width="3" stroke-linecap="round"/>
  <!-- end ticks -->
  <path d="M44 6 H56 M44 94 H56 M6 44 V56 M94 44 V56" stroke="#5eead4" stroke-width="3.5" stroke-linecap="round"/>
  <!-- S drawn as pure geometry (no font) -->
  <path d="M63 34 C63 26, 52 22, 44 24 C34 26.5, 32 38, 42 42 L58 48
           C68 52, 66 64, 56 66.5 C48 68.5, 37 64, 37 56"
        stroke="#eef4f2" stroke-width="9" stroke-linecap="round" stroke-linejoin="round" fill="none"/>
</svg>
